<svg xmlns="http://www.w3.org/2000/svg" width="987" height="982" style=""><rect id="backgroundrect" width="100%" height="100%" x="0" y="0" fill="none" stroke="none" class="" style=""/>
 <g id="Layer_1" style="" class="currentLayer">
  <title>Layer 1</title>
  <g id="svg_1" class="" fill="#ffffff" fill-opacity="1">
   <g id="svg_2" transform="translate(0,980) scale(0.10000000149011612,-0.10000000149011612) " fill="#ffffff" fill-opacity="1">
    <path id="svg_3" d="m4560.07007,9790.51721 c-1035,-75 -1992,-461 -2800,-1127 c-148,-122 -500,-474 -622,-622 c-534,-647 -880,-1372 -1042,-2180 c-259,-1290 18,-2648 761,-3727 c277,-403 628,-778 1018,-1087 c680,-539 1532,-896 2400,-1005 c1489,-188 2966,303 4028,1338 c579,564 982,1199 1237,1947 c495,1452 271,3080 -597,4341 c-287,419 -674,825 -1073,1130 c-720,549 -1553,879 -2470,978 c-174,19 -664,27 -840,14 zm635,-489 c281,-21 598,-72 835,-136 c1229,-331 2246,-1160 2814,-2294 c431,-861 567,-1834 390,-2780 c-151,-804 -512,-1530 -1070,-2150 c-121,-135 -182,-196 -187,-189 c-2,2 -26,45 -52,94 c-396,736 -1011,1288 -1770,1588 c-142,56 -323,114 -428,138 l-58,12 l119,62 c206,106 354,215 511,375 c158,161 270,322 372,535 c257,538 250,1166 -17,1704 c-436,877 -1443,1298 -2369,990 c-736,-245 -1256,-895 -1335,-1668 c-57,-572 148,-1153 553,-1563 c156,-159 305,-268 509,-373 l119,-62 l-58,-13 c-198,-44 -489,-152 -713,-265 c-617,-313 -1133,-814 -1466,-1425 c-37,-69 -69,-127 -71,-129 c-5,-7 -35,22 -152,149 c-212,231 -390,466 -547,726 c-917,1519 -833,3430 215,4874 c260,359 624,718 999,988 c817,588 1862,884 2857,812 zm-25,-2465 c302,-59 546,-189 766,-409 c221,-221 349,-462 410,-771 c25,-125 25,-405 0,-530 c-61,-309 -189,-550 -410,-771 c-221,-221 -462,-349 -771,-410 c-125,-25 -405,-25 -530,0 c-206,41 -413,127 -576,241 c-116,81 -301,268 -378,384 c-110,167 -187,354 -227,556 c-25,125 -25,405 0,530 c85,428 341,792 709,1007 c147,86 375,163 549,187 c102,14 356,6 458,-14 zm150,-3679 c463,-74 882,-241 1254,-500 c315,-219 605,-526 811,-856 c74,-118 207,-379 200,-391 c-10,-16 -238,-175 -360,-251 c-859,-537 -1875,-760 -2880,-632 c-676,86 -1307,323 -1885,707 c-109,72 -250,176 -250,183 c0,2 30,63 66,135 c449,898 1284,1488 2284,1615 c148,18 618,12 760,-10 z" fill="#ffffff" fill-opacity="1"/>
   </g>
  </g>
 </g>

</svg>