<svg xmlns="http://www.w3.org/2000/svg" width="800" height="600" style=""><rect id="backgroundrect" width="100%" height="100%" x="0" y="0" fill="none" stroke="none"/>
 <g id="Layer_1" style="" class="currentLayer">
  <title>Layer 1</title>
  <g id="svg_1" class="selected" stroke-opacity="1" stroke="#dadada" fill="#ffffff" fill-opacity="1">
   <g id="svg_2" transform="translate(0,980) scale(0.10000000149011612,-0.10000000149011612) " fill="#ffffff" stroke="#dadada" stroke-opacity="1" fill-opacity="1">
    <path id="svg_3" d="m3660.07007,11690.51721c-1035,-75 -1992,-461 -2800,-1127c-148,-122 -500,-474 -622,-622c-534,-647 -880,-1372 -1042,-2180c-259,-1290 18,-2648 761,-3727c277,-403 628,-778 1018,-1087c680,-539 1532,-896 2400,-1005c1489,-188 2966,303 4028,1338c579,564 982,1199 1237,1947c495,1452 271,3080 -597,4341c-287,419 -674,825 -1073,1130c-720,549 -1553,879 -2470,978c-174,19 -664,27 -840,14zm635,-489c281,-21 598,-72 835,-136c1229,-331 2246,-1160 2814,-2294c431,-861 567,-1834 390,-2780c-151,-804 -512,-1530 -1070,-2150c-121,-135 -182,-196 -187,-189c-2,2 -26,45 -52,94c-396,736 -1011,1288 -1770,1588c-142,56 -323,114 -428,138l-58,12l119,62c206,106 354,215 511,375c158,161 270,322 372,535c257,538 250,1166 -17,1704c-436,877 -1443,1298 -2369,990c-736,-245 -1256,-895 -1335,-1668c-57,-572 148,-1153 553,-1563c156,-159 305,-268 509,-373l119,-62l-58,-13c-198,-44 -489,-152 -713,-265c-617,-313 -1133,-814 -1466,-1425c-37,-69 -69,-127 -71,-129c-5,-7 -35,22 -152,149c-212,231 -390,466 -547,726c-917,1519 -833,3430 215,4874c260,359 624,718 999,988c817,588 1862,884 2857,812zm-25,-2465c302,-59 546,-189 766,-409c221,-221 349,-462 410,-771c25,-125 25,-405 0,-530c-61,-309 -189,-550 -410,-771c-221,-221 -462,-349 -771,-410c-125,-25 -405,-25 -530,0c-206,41 -413,127 -576,241c-116,81 -301,268 -378,384c-110,167 -187,354 -227,556c-25,125 -25,405 0,530c85,428 341,792 709,1007c147,86 375,163 549,187c102,14 356,6 458,-14zm150,-3679c463,-74 882,-241 1254,-500c315,-219 605,-526 811,-856c74,-118 207,-379 200,-391c-10,-16 -238,-175 -360,-251c-859,-537 -1875,-760 -2880,-632c-676,86 -1307,323 -1885,707c-109,72 -250,176 -250,183c0,2 30,63 66,135c449,898 1284,1488 2284,1615c148,18 618,12 760,-10z" stroke="#dadada" stroke-opacity="1" fill="#ffffff" fill-opacity="1"/>
   </g>
  </g>
 </g>

</svg>